<?xml version="1.0" encoding="UTF-8" standalone="no" ?>
<!DOCTYPE svg PUBLIC "-//W3C//DTD SVG 1.1//EN" "http://www.w3.org/Graphics/SVG/1.1/DTD/svg11.dtd">
<svg xmlns="http://www.w3.org/2000/svg" xmlns:xlink="http://www.w3.org/1999/xlink" version="1.1" width="1080" height="1080" viewBox="0 0 1080 1080" xml:space="preserve">
<desc>Created with Fabric.js 4.2.0</desc>
<defs>
</defs>
<g transform="matrix(1 0 0 1 540 540)" id="8e541a03-59ce-4a40-9fd2-f8c50633c39a"  >
<rect style="stroke: none; stroke-width: 1; stroke-dasharray: none; stroke-linecap: butt; stroke-dashoffset: 0; stroke-linejoin: miter; stroke-miterlimit: 4; fill: rgb(255,255,255); fill-opacity: 0; fill-rule: nonzero; opacity: 1;" vector-effect="non-scaling-stroke"  x="-540" y="-540" rx="0" ry="0" width="1080" height="1080" />
</g>
<g transform="matrix(1 0 0 1 540 540)" id="9147af7e-f371-4f6c-bb1a-a2bf4dfff37f"  >
</g>
<g transform="matrix(1.89 0 0 1.89 540 540)"  >
<g style="" vector-effect="non-scaling-stroke"   >
		<g transform="matrix(1 0 0 1 18.49 3.5)"  >
<path style="stroke: none; stroke-width: 1; stroke-dasharray: none; stroke-linecap: butt; stroke-dashoffset: 0; stroke-linejoin: miter; stroke-miterlimit: 4; fill: rgb(255,255,255); fill-rule: nonzero; opacity: 1;" vector-effect="non-scaling-stroke"  transform=" translate(-138.18, -27.24)" d="M 55.748 31.7793 C 55.748 32.0723 55.6719 32.3418 55.5195 32.5879 C 55.3789 32.834 55.1621 33.0508 54.8691 33.2383 C 54.5645 33.4258 54.1719 33.5781 53.6914 33.6953 C 53.2227 33.8008 52.6719 33.8535 52.0391 33.8535 C 51.5117 33.8535 50.9961 33.8008 50.4922 33.6953 C 50 33.5898 49.5605 33.4199 49.1738 33.1855 C 48.7871 32.9629 48.4707 32.6699 48.2246 32.3066 C 47.9785 31.9316 47.8379 31.4863 47.8027 30.9707 L 43.1445 30.9707 C 43.1445 31.7441 43.332 32.5176 43.707 33.291 C 44.0938 34.0527 44.6562 34.7324 45.3945 35.3301 C 46.1328 35.9395 47.0469 36.4316 48.1367 36.8066 C 49.2383 37.1816 50.5039 37.3691 51.9336 37.3691 C 53.2344 37.3691 54.4121 37.2285 55.4668 36.9473 C 56.5215 36.6543 57.4238 36.25 58.1738 35.7344 C 58.9121 35.2188 59.4805 34.6094 59.8789 33.9062 C 60.2891 33.1914 60.4941 32.4121 60.4941 31.5684 C 60.4941 30.6543 60.2891 29.8691 59.8789 29.2129 C 59.4805 28.5449 58.9238 27.9766 58.209 27.5078 C 57.4941 27.0508 56.6445 26.6758 55.6602 26.3828 C 54.6758 26.0898 53.6094 25.8496 52.4609 25.6621 C 51.6641 25.5449 51.0078 25.4102 50.4922 25.2578 C 49.9766 25.0938 49.5723 24.9121 49.2793 24.7129 C 48.9746 24.5254 48.7637 24.3145 48.6465 24.0801 C 48.5293 23.834 48.4707 23.5703 48.4707 23.2891 C 48.4707 23.0078 48.5352 22.7441 48.6641 22.498 C 48.8047 22.2402 49.0039 22.0176 49.2617 21.8301 C 49.543 21.6191 49.9062 21.4551 50.3516 21.3379 C 50.7969 21.2207 51.3184 21.1621 51.916 21.1621 C 52.6191 21.1621 53.2168 21.25 53.709 21.4258 C 54.2129 21.6016 54.6113 21.8359 54.9043 22.1289 C 55.1152 22.3516 55.2734 22.6035 55.3789 22.8848 C 55.4844 23.1543 55.5371 23.4473 55.5371 23.7637 L 60.4238 23.7637 C 60.4238 22.8848 60.2305 22.0703 59.8438 21.3203 C 59.457 20.5703 58.9004 19.9199 58.1738 19.3691 C 57.4355 18.8301 56.5391 18.4082 55.4844 18.1035 C 54.4297 17.7871 53.2402 17.6289 51.916 17.6289 C 50.6504 17.6289 49.5137 17.7871 48.5059 18.1035 C 47.498 18.4199 46.6426 18.8477 45.9395 19.3867 C 45.2363 19.9258 44.6973 20.5527 44.3223 21.2676 C 43.9473 21.9824 43.7598 22.7324 43.7598 23.5176 C 43.7598 24.3262 43.9414 25.041 44.3047 25.6621 C 44.6797 26.2832 45.1953 26.8281 45.8516 27.2969 C 46.5078 27.7773 47.293 28.1875 48.207 28.5273 C 49.1328 28.8555 50.1523 29.1309 51.2656 29.3535 C 52.1445 29.5176 52.8711 29.6816 53.4453 29.8457 C 54.0195 30.0098 54.4824 30.1855 54.834 30.373 C 55.1738 30.5723 55.4082 30.7832 55.5371 31.0059 C 55.6777 31.2285 55.748 31.4863 55.748 31.7793 Z M 66.4004 17.9805 L 66.4004 21.9707 L 71.8145 21.9707 L 71.8145 33.0273 L 66.4004 33.0273 L 66.4004 37 L 81.9043 37 L 81.9043 33.0273 L 76.7539 33.0273 L 76.7539 17.9805 L 66.4004 17.9805 Z M 71.4629 13.1113 C 71.4629 13.4863 71.5273 13.8379 71.6562 14.166 C 71.7969 14.4824 71.9902 14.752 72.2363 14.9746 C 72.4824 15.209 72.7754 15.3906 73.1152 15.5195 C 73.4668 15.6484 73.8535 15.7129 74.2754 15.7129 C 75.1426 15.7129 75.8281 15.4727 76.332 14.9922 C 76.8477 14.5 77.1055 13.873 77.1055 13.1113 C 77.1055 12.3496 76.8477 11.7285 76.332 11.248 C 75.8281 10.7559 75.1426 10.5098 74.2754 10.5098 C 73.8535 10.5098 73.4668 10.5742 73.1152 10.7031 C 72.7754 10.832 72.4824 11.0078 72.2363 11.2305 C 71.9902 11.4648 71.7969 11.7461 71.6562 12.0742 C 71.5273 12.3906 71.4629 12.7363 71.4629 13.1113 Z M 92.9961 33.0801 L 103.754 20.916 L 103.754 17.9805 L 86.5625 17.9805 L 86.5625 21.9531 L 96.9688 21.9531 L 86.3164 33.9766 L 86.3164 37 L 104.193 37 L 104.193 33.0801 L 92.9961 33.0801 Z M 114.617 33.0801 L 125.375 20.916 L 125.375 17.9805 L 108.184 17.9805 L 108.184 21.9531 L 118.59 21.9531 L 107.938 33.9766 L 107.938 37 L 125.814 37 L 125.814 33.0801 L 114.617 33.0801 Z M 130.982 10 L 130.982 13.9902 L 136.678 13.9902 L 136.678 33.0273 L 130.982 33.0273 L 130.982 37 L 147.066 37 L 147.066 33.0273 L 141.617 33.0273 L 141.617 10 L 130.982 10 Z M 160.812 37.3516 C 162.652 37.3516 164.246 36.9941 165.594 36.2793 C 166.941 35.5645 167.926 34.7676 168.547 33.8887 L 166.104 31.252 C 165.541 31.9785 164.809 32.5234 163.906 32.8867 C 163.004 33.25 162.072 33.4316 161.111 33.4316 C 160.432 33.4316 159.805 33.3262 159.23 33.1152 C 158.656 32.9043 158.146 32.6055 157.701 32.2188 C 157.268 31.8438 156.922 31.4277 156.664 30.9707 C 156.406 30.502 156.195 29.8867 156.031 29.125 L 156.031 29.0723 L 168.934 29.0723 L 168.934 26.998 C 168.934 25.6035 168.74 24.332 168.354 23.1836 C 167.967 22.0234 167.404 21.0332 166.666 20.2129 C 165.916 19.3926 165.002 18.7598 163.924 18.3145 C 162.857 17.8574 161.639 17.6289 160.268 17.6289 C 158.943 17.6289 157.719 17.8691 156.594 18.3496 C 155.469 18.8301 154.496 19.5039 153.676 20.3711 C 152.855 21.2383 152.217 22.2754 151.76 23.4824 C 151.303 24.6777 151.074 26.002 151.074 27.4551 L 151.074 28.1582 C 151.074 29.4355 151.303 30.6367 151.76 31.7617 C 152.229 32.875 152.891 33.8418 153.746 34.6621 C 154.602 35.4941 155.627 36.1504 156.822 36.6309 C 158.018 37.1113 159.348 37.3516 160.812 37.3516 Z M 160.232 21.584 C 160.854 21.584 161.398 21.6836 161.867 21.8828 C 162.348 22.0703 162.752 22.3281 163.08 22.6562 C 163.408 22.9961 163.666 23.3945 163.854 23.8516 C 164.041 24.3086 164.135 24.7949 164.135 25.3105 L 164.135 25.6973 L 156.119 25.6973 C 156.236 25.0762 156.412 24.5137 156.646 24.0098 C 156.881 23.5059 157.174 23.0723 157.525 22.709 C 157.865 22.3457 158.264 22.0703 158.721 21.8828 C 159.178 21.6836 159.682 21.584 160.232 21.584 Z M 174.225 10 L 174.225 13.9902 L 179.92 13.9902 L 179.92 33.0273 L 174.225 33.0273 L 174.225 37 L 190.309 37 L 190.309 33.0273 L 184.859 33.0273 L 184.859 10 L 174.225 10 Z M 194.158 27.3145 L 194.158 27.6836 C 194.158 29.0781 194.357 30.3672 194.756 31.5508 C 195.154 32.7227 195.74 33.7422 196.514 34.6094 C 197.275 35.4766 198.213 36.1562 199.326 36.6484 C 200.451 37.1289 201.729 37.3691 203.158 37.3691 C 204.576 37.3691 205.842 37.1289 206.955 36.6484 C 208.068 36.1562 209.006 35.4766 209.768 34.6094 C 210.529 33.7422 211.109 32.7227 211.508 31.5508 C 211.906 30.3672 212.105 29.0781 212.105 27.6836 L 212.105 27.3145 C 212.105 25.9316 211.906 24.6543 211.508 23.4824 C 211.109 22.2988 210.529 21.2734 209.768 20.4062 C 208.994 19.5391 208.051 18.8594 206.938 18.3672 C 205.824 17.875 204.553 17.6289 203.123 17.6289 C 201.693 17.6289 200.422 17.875 199.309 18.3672 C 198.207 18.8594 197.275 19.5391 196.514 20.4062 C 195.74 21.2734 195.154 22.2988 194.756 23.4824 C 194.357 24.6543 194.158 25.9316 194.158 27.3145 Z M 199.045 27.6836 L 199.045 27.3145 C 199.045 26.541 199.121 25.8086 199.273 25.1172 C 199.426 24.4258 199.666 23.8164 199.994 23.2891 C 200.322 22.7617 200.744 22.3457 201.26 22.041 C 201.775 21.7363 202.396 21.584 203.123 21.584 C 203.861 21.584 204.488 21.7363 205.004 22.041 C 205.52 22.3457 205.941 22.7617 206.27 23.2891 C 206.586 23.8164 206.82 24.4258 206.973 25.1172 C 207.125 25.8086 207.201 26.541 207.201 27.3145 L 207.201 27.6836 C 207.201 28.4805 207.125 29.2305 206.973 29.9336 C 206.82 30.625 206.586 31.2285 206.27 31.7441 C 205.941 32.2715 205.52 32.6875 205.004 32.9922 C 204.488 33.2969 203.873 33.4492 203.158 33.4492 C 202.42 33.4492 201.787 33.2969 201.26 32.9922 C 200.744 32.6875 200.322 32.2715 199.994 31.7441 C 199.666 31.2285 199.426 30.625 199.273 29.9336 C 199.121 29.2305 199.045 28.4805 199.045 27.6836 Z M 215.955 27.3496 L 215.955 27.7188 C 215.955 29.1016 216.131 30.3848 216.482 31.5684 C 216.846 32.7402 217.361 33.7539 218.029 34.6094 C 218.697 35.4648 219.5 36.1387 220.438 36.6309 C 221.387 37.1113 222.453 37.3516 223.637 37.3516 C 224.234 37.3516 224.791 37.2871 225.307 37.1582 C 225.834 37.0293 226.314 36.8477 226.748 36.6133 C 227.041 36.4492 227.316 36.2617 227.574 36.0508 C 227.832 35.8398 228.078 35.6055 228.312 35.3477 L 228.312 36.4375 C 228.312 37.082 228.219 37.6621 228.031 38.1777 C 227.855 38.6934 227.598 39.127 227.258 39.4785 C 226.883 39.8652 226.414 40.1582 225.852 40.3574 C 225.301 40.5566 224.668 40.6562 223.953 40.6562 C 223.508 40.6562 223.074 40.6094 222.652 40.5156 C 222.242 40.4336 221.844 40.3047 221.457 40.1289 C 221.059 39.9531 220.678 39.7246 220.314 39.4434 C 219.951 39.1738 219.611 38.8574 219.295 38.4941 L 217.098 41.4648 C 217.508 41.9922 218 42.4434 218.574 42.8184 C 219.148 43.2051 219.758 43.5215 220.402 43.7676 C 221.047 44.0137 221.697 44.1953 222.354 44.3125 C 223.01 44.4297 223.625 44.4883 224.199 44.4883 C 225.535 44.4883 226.754 44.3066 227.855 43.9434 C 228.969 43.5918 229.924 43.0703 230.721 42.3789 C 231.506 41.6875 232.115 40.8379 232.549 39.8301 C 232.994 38.8223 233.217 37.6738 233.217 36.3848 L 233.217 17.9805 L 228.77 17.9805 L 228.576 19.791 C 228.342 19.498 228.084 19.2344 227.803 19 C 227.521 18.7539 227.217 18.543 226.889 18.3672 C 226.455 18.1211 225.969 17.9395 225.43 17.8223 C 224.902 17.6934 224.316 17.6289 223.672 17.6289 C 222.477 17.6289 221.404 17.8633 220.455 18.332 C 219.506 18.8008 218.697 19.4629 218.029 20.3184 C 217.361 21.1738 216.846 22.1992 216.482 23.3945 C 216.131 24.5898 215.955 25.9082 215.955 27.3496 Z M 220.859 27.7188 L 220.859 27.3496 C 220.859 26.5527 220.941 25.8086 221.105 25.1172 C 221.27 24.4141 221.521 23.7988 221.861 23.2715 C 222.189 22.7559 222.605 22.3516 223.109 22.0586 C 223.613 21.7539 224.211 21.6016 224.902 21.6016 C 225.277 21.6016 225.623 21.6367 225.939 21.707 C 226.268 21.7773 226.566 21.877 226.836 22.0059 C 227.152 22.1582 227.434 22.3574 227.68 22.6035 C 227.926 22.8496 228.137 23.1367 228.312 23.4648 L 228.312 31.5156 C 228.148 31.8086 227.955 32.0723 227.732 32.3066 C 227.51 32.541 227.252 32.7402 226.959 32.9043 C 226.678 33.0566 226.361 33.1738 226.01 33.2559 C 225.67 33.3379 225.289 33.3789 224.867 33.3789 C 224.176 33.3789 223.578 33.2324 223.074 32.9395 C 222.57 32.6465 222.154 32.2422 221.826 31.7266 C 221.498 31.2227 221.252 30.6309 221.088 29.9512 C 220.936 29.2598 220.859 28.5156 220.859 27.7188 Z" stroke-linecap="round" />
</g>
		<g transform="matrix(1 0 0 1 -99.11 -0.24)" clip-path="url(#CLIPPATH_3)"  >
<clipPath id="CLIPPATH_3" >
	<rect transform="matrix(1 0 0 1 -0.08 0)" id="clip0" x="-20.5" y="-20.5" rx="0" ry="0" width="41" height="41" />
</clipPath>
<path style="stroke: none; stroke-width: 1; stroke-dasharray: none; stroke-linecap: butt; stroke-dashoffset: 0; stroke-linejoin: miter; stroke-miterlimit: 4; fill: rgb(243,88,0); fill-rule: nonzero; opacity: 1;" vector-effect="non-scaling-stroke"  transform=" translate(-20.58, -23.5)" d="M 29.1769 16.297 C 27.1352 13.967 25.382 11.8693 25.382 9.01119 C 25.382 7.52192 25.9341 6.1046 26.9191 4.99977 C 27.2553 4.63942 27.3032 4.08701 27.0874 3.6544 C 26.8468 3.19801 26.3667 2.95809 25.8621 3.00595 C 24.8055 3.15015 22.5714 4.80771 20.5779 7.30546 C 20.4096 7.49783 20.2416 7.6899 20.0974 7.90604 C 17.6475 11.1248 15.0294 16.5132 15.4376 23.9354 C 13.9004 22.0858 12.9636 19.0591 13.3239 16.369 C 13.3959 15.7684 13.0114 15.1919 12.4112 15.048 C 11.8106 14.9038 11.21 15.2401 10.9939 15.8166 C 10.2735 17.8104 9.48081 19.3954 8.73602 20.9087 C 7.34279 23.647 6.16602 26.025 6.16602 29.5081 C 6.16602 37.4586 12.6273 44 20.5779 44 C 28.5285 44 34.9898 37.4586 34.9898 29.5081 C 34.9898 22.9745 31.8914 19.4195 29.1769 16.297 Z" stroke-linecap="round" />
</g>
		<g transform="matrix(1 0 0 1 -91.91 -0.24)" clip-path="url(#CLIPPATH_4)"  >
<clipPath id="CLIPPATH_4" >
	<rect transform="matrix(1 0 0 1 -7.28 0)" id="clip0" x="-20.5" y="-20.5" rx="0" ry="0" width="41" height="41" />
</clipPath>
<path style="stroke: none; stroke-width: 1; stroke-dasharray: none; stroke-linecap: butt; stroke-dashoffset: 0; stroke-linejoin: miter; stroke-miterlimit: 4; fill: rgb(243,88,0); fill-rule: nonzero; opacity: 1;" vector-effect="non-scaling-stroke"  transform=" translate(-27.78, -23.5)" d="M 34.9898 29.5081 C 34.9898 37.4586 28.5285 44 20.5779 44 L 20.5779 7.30546 C 22.5717 4.80771 24.8054 3.15015 25.8624 3.00595 C 26.3667 2.95809 26.8471 3.19801 27.0874 3.6544 C 27.3035 4.08701 27.2553 4.63942 26.9191 4.99977 C 25.9344 6.1046 25.3819 7.52192 25.3819 9.01119 C 25.3819 11.8693 27.1352 13.967 29.1772 16.297 C 31.8914 19.4195 34.9898 22.9745 34.9898 29.5081 Z" stroke-linecap="round" />
</g>
</g>
</g>
</svg>